<svg version="1.0" xmlns="http://www.w3.org/2000/svg"
 width="512.000000pt" height="166.000000pt" viewBox="0 0 512.000000 166.000000"
 preserveAspectRatio="xMidYMid meet">
<g transform="translate(0.000000,166.000000) scale(0.100000,-0.100000)"
fill="#FFFFFF" stroke="none">
<path d="M3163 1646 c-140 -27 -229 -65 -329 -139 -145 -110 -221 -306 -180
-468 38 -148 143 -247 394 -373 168 -84 213 -178 125 -260 -92 -85 -352 -80
-554 10 -35 16 -63 23 -68 18 -5 -5 -23 -76 -40 -158 -17 -82 -34 -159 -37
-172 -5 -19 1 -24 58 -42 136 -45 224 -57 413 -56 209 1 283 16 424 85 146 72
251 202 281 346 19 90 9 207 -24 278 -48 106 -133 178 -346 294 -178 97 -223
153 -178 221 65 99 256 115 477 41 47 -16 87 -28 87 -28 9 11 72 343 66 349
-4 4 -52 19 -107 33 -123 33 -345 43 -462 21z"/>
<path d="M0 1602 c0 -27 4 -30 58 -41 89 -20 241 -71 307 -102 79 -39 110 -70
129 -132 16 -55 336 -1292 336 -1301 0 -3 101 -6 224 -6 l223 0 334 796 c184
438 336 800 337 805 2 5 -97 9 -220 9 l-225 0 -209 -530 c-141 -359 -211 -524
-216 -512 -4 9 -44 213 -88 452 -45 239 -85 449 -91 466 -11 36 -73 99 -112
113 -18 7 -165 11 -408 11 l-379 0 0 -28z"/>
<path d="M2115 1618 c-3 -7 -79 -362 -170 -788 -91 -426 -168 -783 -171 -792
-5 -17 10 -18 210 -18 119 0 216 3 216 7 0 7 325 1532 337 1581 l5 22 -211 0
c-160 0 -213 -3 -216 -12z"/>
<path d="M4340 1608 c-24 -13 -52 -34 -62 -48 -15 -21 -648 -1520 -648 -1535
0 -3 100 -5 223 -5 l222 0 24 68 c13 37 32 91 43 120 l20 52 261 -2 261 -3 25
-118 24 -117 194 0 c181 0 193 1 193 18 0 18 -315 1536 -326 1575 -5 15 -24
17 -208 17 -190 0 -204 -1 -246 -22z m214 -730 c31 -147 56 -270 56 -273 0 -3
-72 -5 -160 -5 -88 0 -160 4 -160 9 0 10 188 530 198 545 7 13 1 37 66 -276z"/>
</g>
</svg>
